<svg width="30.3mm" height="34.1mm" fill="#8344da" version="1.1" viewBox="0 0 10104 11358" xmlns="http://www.w3.org/2000/svg">
<path d="m5057 3681-1368 1840h689v1175h1368v-1175h684zm-19.1 4681a5009 1498 0 0 0-5009 1498 5009 1498 0 0 0 5009 1498 5009 1498 0 0 0 5009-1498 5009 1498 0 0 0-5009-1498zm68.4 375c592 4.24 1161 49.1 1705 120 0 0-300 1508-1835 1503-1536-1.01-1710-1503-1710-1503 636-88.6 1252-125 1840-120z" stroke-width="482"/>
<path d="m626 1e4c-515 351-429-515-427-530 138-1175 607-1753 978-2158 155-170 309-330 416-525 511-930 554-1758 554-2423 0-90.5 0.424-177 1.43-261-50.1-1406 727-2572 2095-3025-7.51-476 276-930 809-930 530 0 814 452 809 930 1368 453 2148 1618 2095 3025 1.01 84.3 1.44 170 1.44 261-0.332 665 42.5 1493 554 2423 106 195 261 355 416 525 371 404 843 983 978 2158 1.88 15.9 85.7 881-427 530" fill="none" stroke="#8344da" stroke-width="385"/>
</svg>
