<?xml version="1.0" encoding="UTF-8" standalone="no"?>
<svg xmlns:dc="http://purl.org/dc/elements/1.1/" xmlns:cc="http://creativecommons.org/ns#" xmlns:rdf="http://www.w3.org/1999/02/22-rdf-syntax-ns#" xmlns:svg="http://www.w3.org/2000/svg" xmlns="http://www.w3.org/2000/svg" xmlns:sodipodi="http://sodipodi.sourceforge.net/DTD/sodipodi-0.dtd" xmlns:inkscape="http://www.inkscape.org/namespaces/inkscape" viewBox="0 0 64 64" enable-background="new 0 0 64 64" version="1.1" id="svg80" sodipodi:docname="logo_white.svg" inkscape:version="1.0.1 (3bc2e813f5, 2020-09-07)" inkscape:export-filename="/home/user/Pictures/logo.png" inkscape:export-xdpi="286.87134" inkscape:export-ydpi="286.87134">
  <metadata id="metadata86">
    <rdf:RDF>
      <cc:Work rdf:about="">
        <dc:format>image/svg+xml</dc:format>
        <dc:type rdf:resource="http://purl.org/dc/dcmitype/StillImage"/>
        <dc:title/>
      </cc:Work>
    </rdf:RDF>
  </metadata>
  <defs id="defs84"/>
  <sodipodi:namedview pagecolor="#ffa2ff" bordercolor="#666666" borderopacity="1" objecttolerance="10" gridtolerance="10" guidetolerance="10" inkscape:pageopacity="0" inkscape:pageshadow="2" inkscape:window-width="1600" inkscape:window-height="876" id="namedview82" showgrid="false" inkscape:snap-midpoints="true" inkscape:object-paths="true" inkscape:snap-intersection-paths="true" inkscape:zoom="5.6568543" inkscape:cx="-12.178765" inkscape:cy="48.495499" inkscape:window-x="0" inkscape:window-y="24" inkscape:window-maximized="0" inkscape:current-layer="svg80" inkscape:document-rotation="0"/>
  <path id="path78" d="m 32.308594,1.4335938 c -2.832512,0.099831 -4.829269,2.0757894 -5.134766,4.9921874 -6.738134,2.5655146 -10.643682,8.1758238 -10.74414,15.4863278 -0.0055,0.429575 -0.008,0.873684 -0.0078,1.333985 0.0012,3.388687 0.003,7.607401 -2.605469,12.36914 -0.543806,0.994063 -1.283732,1.812837 -2.070312,2.681641 -2.1581793,2.387105 -4.1724354,4.797272 -5.0175784,10.662109 -0.094993,0.282774 -0.1493494,0.195248 -0.1523437,2.183594 -0.018066,1.364769 1.2653829,2.948029 3.0742187,3.966797 4.1143174,2.317257 12.2824044,4.858995 21.9179684,4.517578 12.12418,-0.431794 25.045123,-3.55144 25.111329,-8.488281 0.0028,-0.202694 -0.0198,-0.399749 -0.05859,-0.59375 0.09448,-8.532729 -2.551021,-11.362716 -4.677735,-13.634766 -0.756686,-0.808363 -1.471483,-1.57252 -1.982421,-2.515625 -2.473656,-4.570039 -2.357471,-8.787464 -2.263672,-12.177734 0.01316,-0.457406 0.02622,-0.901375 0.03125,-1.330078 C 47.810884,14.877848 45.256986,10.105583 40.537109,7.4472656 39.5717,6.9035299 38.513992,6.4482912 37.392578,6.0898438 37.146337,3.2299608 35.139363,1.332781 32.308594,1.4335938 Z m 0.05859,1.9335937 c 0.664316,-0.024097 1.237846,0.095369 1.703124,0.3574219 0.921845,0.5191989 1.43853,1.6453351 1.417969,3.0878906 l -0.01172,0.7421875 0.714844,0.1992187 c 1.227102,0.3399298 2.368791,0.8042444 3.392578,1.3808594 4.137842,2.3305064 6.287431,6.3868074 6.214844,11.7343754 -0.0063,0.418788 -0.01804,0.853389 -0.03125,1.302734 -0.100679,3.620525 -0.226195,8.1258 2.494141,13.150391 0.628263,1.160682 1.463521,2.050716 2.269531,2.912109 1.834525,1.95943 3.716822,3.989128 4.089844,9.707031 -0.194452,-0.13362 -0.407355,-0.264495 -0.634766,-0.392578 -4.116931,-2.318728 -12.66044,-3.546005 -22.296875,-3.205078 -9.109505,0.324381 -18.66965,2.168593 -22.8886718,5.160156 0.5506537,-5.66249 2.4867458,-7.826367 4.3730468,-9.912109 0.825498,-0.913452 1.67808,-1.857079 2.332031,-3.050781 2.849455,-5.199847 2.848039,-9.693857 2.845703,-13.304688 -0.0014,-0.451858 -7.93e-4,-0.88659 0.0039,-1.308594 0.0938,-6.758746 3.662795,-11.693844 10.050793,-13.896484 l 0.646484,-0.2207031 0.0078,-0.6835938 c 0.01305,-0.8545729 0.285757,-3.6535547 3.306641,-3.7597656 z m 8.814645,42.8257115 c 0,0 -1.255318,8.012719 -9.193548,7.912604 -7.559868,0.1181 -8.928231,-7.480005 -8.928231,-7.480005 6.461571,-1.062863 12.549455,-1.025212 18.121779,-0.432599 z" sodipodi:nodetypes="ccccccccscccccccsccsscccsccccccccccccccccscccc" style="fill:#ffffff;stroke:none"/>
  <path style="fill:#ffffff;stroke:none;stroke-width:1px;stroke-linecap:butt;stroke-linejoin:miter;stroke-opacity:1" d="M 25,29 32,19.594714 39,29 h -3.5 v 6 h -7 v -6 z" id="path152" sodipodi:nodetypes="cccccccc"/>
</svg>